P2
2 2
255
5  10 
10 250
