P2
1 2
255
8
12
