P2
2 2
255
0 3
12 15
