P2
1 2
255
9
13
