P2
2 2
255
10 11
14 15
