P2
2 1
255
6 7
