P2
2 2
255
0 1
4 5
