P2
2 2
255
8 9
12 13
