P2
2 2
255
0 2
8 10
