P2
2 2
100
10  10 
20 75
