P2
2 2
200
20  20 
40 150
